<svg width="22" height="22" viewBox="0 0 22 22" fill="none" xmlns="http://www.w3.org/2000/svg">
<path d="M7.85714 11.5554C6.9706 11.5554 6.22521 11.2684 5.621 10.6945C5.01652 10.1203 4.71429 9.44436 4.71429 8.66654C4.71429 8.0074 4.8764 7.52183 5.20064 7.20983C5.52514 6.89784 5.72969 6.48437 5.81429 5.96944C5.79019 5.69163 5.73179 5.42032 5.63907 5.15551C5.54636 4.8907 5.5 4.61662 5.5 4.33327C5.5 3.7088 5.68281 3.15414 6.04843 2.66929C6.41405 2.18421 6.9888 1.79169 7.77268 1.49173C8.17549 1.12316 8.6096 0.782396 9.075 0.469437C9.54041 0.156479 10.1821 0 11 0C11.8583 0 12.51 0.165748 12.9553 0.497243C13.4005 0.828738 13.8245 1.16023 14.2273 1.49173C15.0112 1.79169 15.586 2.18421 15.9516 2.66929C16.3172 3.15414 16.5 3.7088 16.5 4.33327C16.5 4.61662 16.4536 4.8907 16.3609 5.15551C16.2682 5.42032 16.2098 5.69163 16.1857 5.96944C16.2703 6.48437 16.4749 6.89784 16.7994 7.20983C17.1236 7.52183 17.2857 8.0074 17.2857 8.66654C17.2857 9.44436 16.9835 10.1203 16.379 10.6945C15.7748 11.2684 15.0294 11.5554 14.1429 11.5554H7.85714ZM7.85714 10.4446H14.1429C14.6908 10.4446 15.1501 10.2636 15.521 9.90152C15.8916 9.53945 16.0769 9.12719 16.0769 8.66473C16.0769 8.46227 16.0427 8.26992 15.9744 8.08768C15.9057 7.9052 15.7868 7.72417 15.6176 7.54458C15.3712 7.25931 15.2028 6.98535 15.1124 6.7227C15.0221 6.46006 14.9769 6.21318 14.9769 5.98208C14.9769 5.64601 15.0293 5.33955 15.134 5.0627C15.2388 4.78585 15.2912 4.54163 15.2912 4.33002C15.2912 3.96747 15.1854 3.63946 14.9738 3.346C14.7624 3.05255 14.4642 2.82794 14.0792 2.67218C13.876 2.59996 13.6887 2.50655 13.5174 2.39196C13.3461 2.27713 13.195 2.141 13.0641 1.98355C12.9109 1.81744 12.6583 1.63051 12.3063 1.42276C11.9543 1.215 11.5182 1.11112 10.998 1.11112C10.4776 1.11112 10.042 1.22126 9.691 1.44153C9.34031 1.66181 9.08862 1.85452 8.93593 2.01966C8.80498 2.15857 8.65386 2.28676 8.48257 2.40424C8.31129 2.52196 8.12402 2.62331 7.92079 2.70829C7.53579 2.83998 7.23761 3.05255 7.02625 3.346C6.81463 3.63946 6.70882 3.96747 6.70882 4.33002C6.70882 4.54163 6.7612 4.78585 6.86596 5.0627C6.97073 5.33955 7.02311 5.64601 7.02311 5.98208C7.02311 6.21318 6.97793 6.46006 6.88757 6.7227C6.79721 6.98535 6.62881 7.25931 6.38236 7.54458C6.21317 7.72417 6.09426 7.9052 6.02564 8.08768C5.95729 8.26992 5.92311 8.46227 5.92311 8.66473C5.92311 9.12719 6.10841 9.53945 6.479 9.90152C6.84986 10.2636 7.30924 10.4446 7.85714 10.4446ZM0 22V19.911C0 19.274 0.198393 18.7046 0.595178 18.2026C0.992226 17.7009 1.51302 17.3092 2.15757 17.0276C3.71093 16.398 5.21714 15.9213 6.67621 15.5972C8.13502 15.2732 9.57602 15.1112 10.9992 15.1112C12.4221 15.1112 13.8618 15.2745 15.3183 15.6012C16.775 15.9281 18.2745 16.4078 19.8169 17.0402C20.4832 17.3171 21.0137 17.7055 21.4084 18.2055C21.8028 18.7055 22 19.274 22 19.911V22H0ZM1.20882 20.8889H20.7912V19.911C20.7912 19.5444 20.6567 19.1911 20.3877 18.8512C20.1187 18.5115 19.7506 18.2296 19.2834 18.0054C17.8691 17.3704 16.4861 16.9144 15.1344 16.6376C13.783 16.3607 12.4049 16.2223 11 16.2223C9.59514 16.2223 8.20888 16.3607 6.84122 16.6376C5.47355 16.9144 4.09567 17.3704 2.70757 18.0054C2.24033 18.2296 1.87367 18.5115 1.60757 18.8512C1.34174 19.1911 1.20882 19.5444 1.20882 19.911V20.8889Z" fill="#858585"/>
</svg>
