<svg width="36" height="21" viewBox="0 0 36 21" fill="none" xmlns="http://www.w3.org/2000/svg">
<path d="M2.83788 20.2H2.18054L1.67221 16.2H0.354492V10.2C0.354492 9.43633 0.616346 8.787 1.14005 8.252C1.66376 7.71733 2.31417 7.45 3.09128 7.45H4.51036V2.7C4.51036 1.975 4.77627 1.34367 5.30809 0.806C5.8399 0.268666 6.48626 0 7.24715 0H28.736C29.4709 0 30.1109 0.268666 30.6559 0.806C31.2005 1.34367 31.4728 1.975 31.4728 2.7V7.45H32.8919C33.6268 7.45 34.2667 7.71867 34.8117 8.256C35.3564 8.79367 35.6287 9.425 35.6287 10.15V16.2H34.311L33.8032 20.2H33.1463L32.6385 16.2H3.34469L2.83788 20.2ZM18.5491 7.45H30.3578V2.7C30.3578 2.23333 30.1974 1.85 29.8764 1.55C29.5554 1.25 29.1753 1.1 28.736 1.1H18.5491V7.45ZM5.62535 7.45H17.4341V1.1H7.24715C6.77413 1.1 6.38557 1.25 6.08148 1.55C5.7774 1.85 5.62535 2.23333 5.62535 2.7V7.45ZM1.46948 15.1H34.5137V10.15C34.5137 9.71667 34.3617 9.34167 34.0576 9.025C33.7535 8.70833 33.3649 8.55 32.8919 8.55H3.09128C2.61826 8.55 2.2297 8.70833 1.92561 9.025C1.62153 9.34167 1.46948 9.71667 1.46948 10.15V15.1Z" fill="#858585"/>
</svg>
