<svg width="23" height="19" viewBox="0 0 23 19" fill="none" xmlns="http://www.w3.org/2000/svg">
<path d="M10.4234 11.2707H11.8132V9.74839H13.6662V8.60669H11.8132V7.08443H10.4234V8.60669H8.57039V9.74839H10.4234V11.2707ZM4.16943 14.3736V13.2321H5.84435V7.55271C5.84435 6.52912 6.22893 5.62407 6.99809 4.83757C7.7671 4.05106 8.75446 3.54802 9.96017 3.32843V2.85425C9.96017 2.59001 10.0727 2.36535 10.2977 2.18026C10.5226 1.99531 10.7958 1.90283 11.1172 1.90283C11.4387 1.90283 11.7122 1.99531 11.9378 2.18026C12.1636 2.36535 12.2765 2.59001 12.2765 2.85425V3.32843C13.4822 3.54802 14.4695 4.05106 15.2385 4.83757C16.0077 5.62407 16.3923 6.52912 16.3923 7.55271V13.2321H18.0672V14.3736H4.16943ZM11.1167 16.5107C10.6558 16.5107 10.2617 16.3759 9.93446 16.1065C9.60709 15.8371 9.4434 15.5131 9.4434 15.1347H12.7932C12.7932 15.5144 12.6291 15.8387 12.3008 16.1075C11.9725 16.3763 11.5778 16.5107 11.1167 16.5107ZM7.23412 13.2321H15.0025V7.55271C15.0025 6.67158 14.6233 5.91952 13.865 5.29653C13.1065 4.67342 12.1909 4.36186 11.1183 4.36186C10.0457 4.36186 9.13016 4.67342 8.37165 5.29653C7.6133 5.91952 7.23412 6.67158 7.23412 7.55271V13.2321Z" fill="#858585"/>
</svg>
