<svg width="29" height="22" viewBox="0 0 29 22" fill="none" xmlns="http://www.w3.org/2000/svg">
<path d="M13 14.1083H15V11.8157H17.6667V10.0963H15V7.8037H13V10.0963H10.3333V11.8157H13V14.1083ZM4 18.7815V17.0623H6.41033V8.50896C6.41033 6.96738 6.96378 5.60434 8.07067 4.41983C9.17733 3.23532 10.5982 2.47772 12.3333 2.14701V1.43287C12.3333 1.03491 12.4952 0.696566 12.819 0.417825C13.1428 0.139275 13.5359 0 13.9983 0C14.461 0 14.8547 0.139275 15.1793 0.417825C15.5042 0.696566 15.6667 1.03491 15.6667 1.43287V2.14701C17.4018 2.47772 18.8227 3.23532 19.9293 4.41983C21.0362 5.60434 21.5897 6.96738 21.5897 8.50896V17.0623H24V18.7815H4ZM13.9977 22C13.3343 22 12.7672 21.7971 12.2963 21.3913C11.8252 20.9855 11.5897 20.4977 11.5897 19.9278H16.4103C16.4103 20.4996 16.1741 20.9879 15.7017 21.3927C15.2292 21.7976 14.6612 22 13.9977 22ZM8.41033 17.0623H19.5897V8.50896C19.5897 7.18193 19.044 6.04929 17.9527 5.11105C16.8611 4.17261 15.5436 3.7034 14 3.7034C12.4564 3.7034 11.1389 4.17261 10.0473 5.11105C8.956 6.04929 8.41033 7.18193 8.41033 8.50896V17.0623Z" fill="#959595"/>
</svg>
