<svg width="18" height="18" viewBox="0 0 18 18" fill="none" xmlns="http://www.w3.org/2000/svg">
<path d="M9 8.77907C7.93929 8.77907 7.03125 8.40448 6.27589 7.65531C5.52054 6.90613 5.14286 6.00553 5.14286 4.95349V1.44671C5.14286 1.04481 5.28225 0.703269 5.56104 0.422089C5.84004 0.140696 6.17871 0 6.57707 0C6.8325 0 7.06361 0.058022 7.27039 0.174065C7.47739 0.290107 7.65011 0.445468 7.78854 0.640148C7.92696 0.445468 8.09957 0.290107 8.30636 0.174065C8.51336 0.058022 8.74457 0 9 0C9.25543 0 9.48664 0.058022 9.69364 0.174065C9.90043 0.290107 10.073 0.445468 10.2115 0.640148C10.3499 0.445468 10.5226 0.290107 10.7296 0.174065C10.9364 0.058022 11.1634 0 11.4107 0C11.8228 0 12.1669 0.140696 12.4431 0.422089C12.7191 0.703269 12.8571 1.04481 12.8571 1.44671V4.95349C12.8571 6.00553 12.4795 6.90613 11.7241 7.65531C10.9688 8.40448 10.0607 8.77907 9 8.77907ZM9 7.50388C9.70714 7.50388 10.3125 7.25415 10.8161 6.7547C11.3196 6.25525 11.5714 5.65485 11.5714 4.95349V1.76551H6.42857V4.95349C6.42857 5.65485 6.68036 6.25525 7.18393 6.7547C7.6875 7.25415 8.29286 7.50388 9 7.50388ZM0 18V15.9007C0 15.3743 0.1545 14.8817 0.4635 14.4231C0.772714 13.9646 1.18854 13.6087 1.71096 13.3551C2.92425 12.7781 4.13829 12.3453 5.35307 12.0566C6.56786 11.7682 7.7835 11.624 9 11.624C10.2165 11.624 11.4321 11.7682 12.6469 12.0566C13.8617 12.3453 15.0758 12.7781 16.289 13.3551C16.8115 13.6087 17.2273 13.9646 17.5365 14.4231C17.8455 14.8817 18 15.3743 18 15.9007V18H0ZM1.28571 16.7248H16.7143V15.9007C16.7143 15.6178 16.6224 15.3522 16.4385 15.1037C16.2549 14.8553 16.0006 14.6452 15.6758 14.4735C14.6176 13.9651 13.5266 13.5756 12.4026 13.3051C11.2787 13.0345 10.1445 12.8992 9 12.8992C7.8555 12.8992 6.72129 13.0345 5.59736 13.3051C4.47343 13.5756 3.38239 13.9651 2.32425 14.4735C1.99939 14.6452 1.74514 14.8553 1.5615 15.1037C1.37764 15.3522 1.28571 15.6178 1.28571 15.9007V16.7248Z" fill="#858585"/>
</svg>
