<svg width="22" height="17" viewBox="0 0 22 17" fill="none" xmlns="http://www.w3.org/2000/svg">
<path d="M13.6324 9.06039H18.6154V7.84611H13.6324V9.06039ZM13.6324 5.69773H18.6154V4.48345H13.6324V5.69773ZM3.38464 12.5166H11.4699V12.3156C11.4699 11.6073 11.1119 11.0589 10.3959 10.6705C9.6799 10.2822 8.69041 10.088 7.42744 10.088C6.16448 10.088 5.17489 10.2822 4.45867 10.6705C3.74265 11.0589 3.38464 11.6073 3.38464 12.3156V12.5166ZM7.42744 8.1263C7.94281 8.1263 8.37721 7.95084 8.73064 7.59991C9.08407 7.24878 9.26078 6.8171 9.26078 6.30487C9.26078 5.79265 9.08407 5.36107 8.73064 5.01014C8.37721 4.65901 7.94281 4.48345 7.42744 4.48345C6.91187 4.48345 6.47737 4.65901 6.12394 5.01014C5.77072 5.36107 5.59411 5.79265 5.59411 6.30487C5.59411 6.8171 5.77072 7.24878 6.12394 7.59991C6.47737 7.95084 6.91187 8.1263 7.42744 8.1263ZM1.9745 17C1.41187 17 0.94213 16.8128 0.565278 16.4384C0.188426 16.064 0 15.5973 0 15.0383V1.96168C0 1.4027 0.188426 0.936012 0.565278 0.561607C0.94213 0.187202 1.41187 0 1.9745 0H20.0255C20.5881 0 21.0579 0.187202 21.4347 0.561607C21.8116 0.936012 22 1.4027 22 1.96168V15.0383C22 15.5973 21.8116 16.064 21.4347 16.4384C21.0579 16.8128 20.5881 17 20.0255 17H1.9745ZM1.9745 15.7857H20.0255C20.2137 15.7857 20.3862 15.7079 20.5428 15.5523C20.6995 15.3966 20.7778 15.2253 20.7778 15.0383V1.96168C20.7778 1.77468 20.6995 1.60336 20.5428 1.44773C20.3862 1.2921 20.2137 1.21429 20.0255 1.21429H1.9745C1.78628 1.21429 1.61384 1.2921 1.45719 1.44773C1.30055 1.60336 1.22222 1.77468 1.22222 1.96168V15.0383C1.22222 15.2253 1.30055 15.3966 1.45719 15.5523C1.61384 15.7079 1.78628 15.7857 1.9745 15.7857Z" fill="#858585"/>
</svg>
