<svg width="20" height="18" viewBox="0 0 20 18" fill="none" xmlns="http://www.w3.org/2000/svg">
<path d="M14.7059 7.59533V4.5572H11.1765V3.03813H14.7059V0H16.4706V3.03813H20V4.5572H16.4706V7.59533H14.7059ZM18.7532 17.2161C16.5362 17.2161 14.3088 16.7724 12.0712 15.8849C9.83373 14.9974 7.77794 13.7455 5.90382 12.1292C4.0299 10.5128 2.57745 8.74307 1.54647 6.8201C0.51549 4.8973 0 2.98168 0 1.07322C0 0.766538 0.117647 0.510997 0.352941 0.306598C0.588235 0.102199 0.882353 0 1.23529 0H5.07235C5.36941 0 5.63147 0.0834647 5.85853 0.250393C6.08559 0.417153 6.23 0.623239 6.29177 0.868653L6.96618 3.8483C7.01284 4.12477 7.00304 4.36234 6.93677 4.561C6.87029 4.75966 6.75108 4.9265 6.57912 5.06153L3.86206 7.33836C4.29931 8.02768 4.79892 8.67978 5.36088 9.29466C5.92265 9.90938 6.53088 10.4965 7.18559 11.056C7.83108 11.6118 8.51735 12.128 9.24441 12.6045C9.97147 13.0809 10.7566 13.5243 11.5997 13.9347L14.2397 11.6424C14.4238 11.4775 14.6468 11.3619 14.9085 11.2955C15.1701 11.2294 15.442 11.2132 15.7241 11.2469L18.9909 11.8196C19.2879 11.8871 19.5304 12.0176 19.7182 12.211C19.9061 12.4044 20 12.6239 20 12.8693V16.1527C20 16.4566 19.8813 16.7097 19.6438 16.9123C19.4064 17.1148 19.1095 17.2161 18.7532 17.2161ZM3.02706 5.90107L5.12676 4.17161C5.16441 4.14562 5.18892 4.10992 5.20029 4.06452C5.21167 4.01911 5.2098 3.97692 5.19471 3.93793L4.68324 1.67477C4.66814 1.62295 4.64177 1.58405 4.60412 1.55806C4.56647 1.53206 4.51745 1.51907 4.45706 1.51907H1.94118C1.89588 1.51907 1.85814 1.53206 1.82794 1.55806C1.79794 1.58405 1.78294 1.61654 1.78294 1.65553C1.84314 2.34755 1.97471 3.05054 2.17765 3.7645C2.38039 4.47863 2.66353 5.19082 3.02706 5.90107ZM13.2624 14.6532C14.0422 14.9661 14.8555 15.2054 15.7024 15.3709C16.5494 15.5363 17.3409 15.6347 18.0768 15.6659C18.1221 15.6659 18.1598 15.6529 18.19 15.6269C18.2202 15.6009 18.2353 15.5684 18.2353 15.5294V13.3989C18.2353 13.3469 18.2202 13.3047 18.19 13.2723C18.1598 13.2399 18.1146 13.2172 18.0544 13.2042L15.5838 12.7718C15.5385 12.7588 15.4989 12.7572 15.465 12.767C15.4311 12.7768 15.3952 12.7979 15.3574 12.8303L13.2624 14.6532Z" fill="#858585"/>
</svg>
