<svg width="143" height="76" viewBox="0 0 143 76" fill="none" xmlns="http://www.w3.org/2000/svg">
<path d="M57.8891 22.1237L76.1768 0.840576L91.0875 19.2476L95.7634 20.1104L100.225 35.3785L82.3593 40.4156L29.6782 39.3802L46.5112 17.4069L49.2648 13.4954L57.8891 22.1237Z" fill="white"/>
<path d="M43.5922 32.3861L42.7003 31.2322L38 30.0783L43.5922 23.6165L47.5767 20.8471L49.6738 16.9238L52.1903 15.3084L55.9651 13.9237L57.8525 14.3853L59.1107 15.3084L59.7399 16.0007L60.9981 17.3854L62.6758 18.5393L63.3049 19.0009L64.5632 17.3854L65.6118 16.0007L67.2894 14.1545L67.9186 13.2314L69.8059 10.9236L71.2739 8.84653L72.1128 7.69263L77.3555 2.1539L80.7109 1.23078L81.7594 1L82.3885 1.23078L83.2274 1.46156L83.8565 1.69234L84.0662 2.1539L84.4856 2.61546L85.5342 2.84624L86.5827 4.46171L87.4216 5.84639L89.9381 10.2312L94.1323 16.0007L96.0197 18.0777L98.3265 20.1548C98.8158 20.3086 99.8364 20.6163 100.004 20.6163H101.892C102.059 20.6163 102.94 21.3856 103.36 21.7702L105.037 24.5396L116 34.9247L109.824 32.1064L105.037 29.3908L104.202 28.5692L103.15 25.9243L102.521 24.5396L100.843 22.9241L99.1653 21.7702H97.9071V22.2318L98.7459 23.3857L99.7945 24.7704L101.053 26.1551L101.682 26.8474L100.843 26.3858L99.375 25.2319L97.4877 24.078L96.0197 22.2318L94.9711 20.8471L94.1323 19.2316L93.9226 18.5393L93.2935 17.3854L92.2449 16.0007L91.8255 15.3084L91.1964 14.8468L90.9867 14.3853L90.3575 13.6929L89.309 12.539L88.4701 12.0775L88.2604 11.6159L88.0507 11.1543L87.6313 10.9236L87.4216 10.0004L86.7925 8.61575L85.5342 6.53873L84.9051 5.38483L84.6954 4.92327L84.0662 4.46171L83.2274 4.00015L82.5983 3.53858H81.9691V4.46171L81.5497 4.92327L81.1303 5.15405L81.7594 6.07717L82.5983 7.92341L83.0177 9.07731L83.4371 10.2312L83.6468 11.1543V12.3082C83.7866 12.9237 84.0662 14.2006 84.0662 14.3853C84.0662 14.5699 84.6255 16.0007 84.9051 16.6931L85.9536 18.7701L87.2119 20.6163L88.0507 21.5395L88.8896 22.6934L89.5187 23.1549L89.309 23.3857L88.4701 23.6165L87.4216 23.1549L85.9536 22.2318L84.2759 20.6163L82.808 19.2316L81.7594 18.3085L81.1303 18.0777H80.0817L79.872 18.3085L79.2429 18.7701L78.8235 19.6932L78.1944 20.6163L77.5652 21.3087L76.9361 22.2318L75.8875 23.3857L74.6293 24.5396L73.7904 25.4627L66.4876 28.5036L67.2894 29.386L68.4863 30.1543C68.6766 30.0697 68.8949 29.9683 69.1448 29.8476C69.2212 29.8106 69.043 30.0585 68.8005 30.356L69.8059 31.0014L72.9193 33.0572L73.7904 32.3861L73.2139 33.8471L73.4035 34.4027L73.7904 34.2324H74.3916C74.4026 34.2284 74.412 34.2282 74.4196 34.2324L74.348 34.2606C74.2745 34.3231 74.1648 34.4732 74.0446 34.6519L74.6293 35.6171C74.4045 35.7626 74.1801 35.9 73.9585 36.0293L74.6293 37.9951L77.9846 40.6901L80.0817 42.1856L72.9516 37.9951H69.3722L69.1448 38.3864L69.2892 37.9951H68.6252L69.4235 37.6311L70.0416 35.9563L69.1448 36.3094L70.065 35.8927L70.2862 35.2934L70.2063 35.1506L70.1838 35.1555L70.0799 34.9247L69.5726 33.798L70.6802 33.0291L70.1838 32.3861C70.06 32.3861 68.3773 31.3353 67.9953 31.2242C67.947 31.2587 67.9186 31.2649 67.9186 31.2322C67.9186 31.2112 67.9462 31.2099 67.9953 31.2242C68.1524 31.1121 68.5196 30.7007 68.8005 30.356L68.4863 30.1543C66.4934 31.0398 67.5629 30.0783 67.4991 30.0783C63.964 31.6938 67.0378 30.0783 66.87 30.0783C66.7022 30.0783 66.5205 29.9245 66.4506 29.8476L66.0312 28.6936L65.6118 27.5397C65.3321 27.0782 64.731 26.1089 64.5632 25.9243L62.6758 23.8473L60.9981 22.2318L59.7399 21.3087L58.6913 19.6932L57.4331 18.0777L56.5942 16.6931L56.3845 16.0007H55.336L55.1262 16.6931L54.9165 17.3854L55.336 19.2316L55.7554 21.5395L56.5942 23.6165L57.4331 24.7704L58.901 26.6166L60.5787 29.1552L62.2564 30.7707L62.4661 31.0014L62.6758 31.2322L61.837 31.0014L59.7399 29.8475L58.2719 28.4629L57.4331 27.7705L56.5942 27.309L56.3845 28.4629L56.8039 29.8475L57.6428 31.2322L58.901 32.8477L60.5787 34.2324L62.0467 35.6171L66.87 39.3095L55.336 38.3864L57.4331 36.3094H56.3845L54.9165 35.3863L54.4971 34.9247H53.4486L51.9806 34.2324H49.8835L49.2544 34.0016L48.6253 33.54L48.2058 33.0785L47.5767 32.3861H46.5282H43.5922Z" fill="#90BAE6"/>
<path d="M31 30H72.6421L82.5 42L31 34.1905V30Z" fill="white"/>
<path d="M27.0614 27.7953L70.7807 27.7953L84.1608 40.5199L84.1641 42.7599L82.8258 42.7599L70.3341 30.1064L27.5071 30.1064L24.8312 43.2872L11.0014 43.2872L27.0614 27.7953Z" fill="#4F5560"/>
<path d="M106.024 27.7953L131.899 44.3416L128.33 44.3416L106.47 30.1065L96.6556 42.2327L85.0563 42.7599L84.1641 42.7599L84.1608 40.5199L106.024 27.7953Z" fill="#4F5560"/>
<path d="M33.7534 32.7424H48.0291V33.7969H35.0512L33.7534 32.7424Z" fill="#77787B"/>
<path d="M33.7535 32.7424L35.0919 33.7969L34.6458 41.7053L31.5229 35.3786L33.7535 32.7424Z" fill="#262729"/>
<rect x="34.646" y="33.7969" width="12.4912" height="7.38117" fill="#EFEFEF"/>
<path d="M56.0596 32.7424H70.3352V33.7969H57.3574L56.0596 32.7424Z" fill="#77787B"/>
<path d="M56.0595 32.7424L57.3978 33.7969L56.9517 41.7053L53.3828 34.8513L56.0595 32.7424Z" fill="#262729"/>
<rect x="56.9517" y="33.7969" width="12.4912" height="7.38117" fill="#EFEFEF"/>
<path d="M7.08 64.3095C5.672 64.3095 4.472 64.0535 3.48 63.5415C2.504 63.0295 1.664 62.3415 0.96 61.4775L2.832 59.7255C3.424 60.4455 4.072 60.9895 4.776 61.3575C5.496 61.7255 6.312 61.9095 7.224 61.9095C8.296 61.9095 9.104 61.6695 9.648 61.1895C10.192 60.7095 10.464 60.0615 10.464 59.2455C10.464 58.5895 10.272 58.0695 9.888 57.6855C9.504 57.3015 8.824 57.0135 7.848 56.8215L6.36 56.5575C4.728 56.2535 3.504 55.7175 2.688 54.9495C1.872 54.1815 1.464 53.1255 1.464 51.7815C1.464 51.0455 1.6 50.3815 1.872 49.7895C2.16 49.1815 2.552 48.6775 3.048 48.2775C3.56 47.8615 4.176 47.5415 4.896 47.3175C5.616 47.0935 6.424 46.9815 7.32 46.9815C8.584 46.9815 9.68 47.2055 10.608 47.6535C11.536 48.0855 12.328 48.7175 12.984 49.5495L11.088 51.2295C10.656 50.6695 10.128 50.2215 9.504 49.8855C8.88 49.5495 8.104 49.3815 7.176 49.3815C6.216 49.3815 5.472 49.5735 4.944 49.9575C4.416 50.3415 4.152 50.9015 4.152 51.6375C4.152 52.3415 4.368 52.8695 4.8 53.2215C5.232 53.5575 5.904 53.8135 6.816 53.9895L8.304 54.3015C9.984 54.6215 11.208 55.1655 11.976 55.9335C12.76 56.7015 13.152 57.7575 13.152 59.1015C13.152 59.8855 13.016 60.5975 12.744 61.2375C12.472 61.8775 12.072 62.4295 11.544 62.8935C11.032 63.3415 10.4 63.6935 9.648 63.9495C8.896 64.1895 8.04 64.3095 7.08 64.3095ZM20.9198 54.7575L19.0718 51.2055H18.9998V64.0215H16.4078V47.2695H19.4318L24.9038 56.5335L26.7518 60.0855H26.8238V47.2695H29.4158V64.0215H26.3918L20.9198 54.7575ZM40.0206 64.3095C38.9326 64.3095 37.9406 64.1255 37.0446 63.7575C36.1646 63.3735 35.4046 62.8215 34.7646 62.1015C34.1406 61.3655 33.6526 60.4615 33.3006 59.3895C32.9646 58.3015 32.7966 57.0535 32.7966 55.6455C32.7966 54.2375 32.9646 52.9975 33.3006 51.9255C33.6526 50.8375 34.1406 49.9335 34.7646 49.2135C35.4046 48.4775 36.1646 47.9255 37.0446 47.5575C37.9406 47.1735 38.9326 46.9815 40.0206 46.9815C41.1086 46.9815 42.0926 47.1735 42.9726 47.5575C43.8686 47.9255 44.6286 48.4775 45.2526 49.2135C45.8926 49.9335 46.3806 50.8375 46.7166 51.9255C47.0686 52.9975 47.2446 54.2375 47.2446 55.6455C47.2446 57.0535 47.0686 58.3015 46.7166 59.3895C46.3806 60.4615 45.8926 61.3655 45.2526 62.1015C44.6286 62.8215 43.8686 63.3735 42.9726 63.7575C42.0926 64.1255 41.1086 64.3095 40.0206 64.3095ZM40.0206 61.8855C40.6606 61.8855 41.2446 61.7735 41.7726 61.5495C42.3166 61.3255 42.7726 61.0055 43.1406 60.5895C43.5246 60.1575 43.8206 59.6375 44.0286 59.0295C44.2366 58.4215 44.3406 57.7335 44.3406 56.9655V54.3255C44.3406 53.5575 44.2366 52.8695 44.0286 52.2615C43.8206 51.6535 43.5246 51.1415 43.1406 50.7255C42.7726 50.2935 42.3166 49.9655 41.7726 49.7415C41.2446 49.5175 40.6606 49.4055 40.0206 49.4055C39.3646 49.4055 38.7726 49.5175 38.2446 49.7415C37.7166 49.9655 37.2606 50.2935 36.8766 50.7255C36.5086 51.1415 36.2206 51.6535 36.0126 52.2615C35.8046 52.8695 35.7006 53.5575 35.7006 54.3255V56.9655C35.7006 57.7335 35.8046 58.4215 36.0126 59.0295C36.2206 59.6375 36.5086 60.1575 36.8766 60.5895C37.2606 61.0055 37.7166 61.3255 38.2446 61.5495C38.7726 61.7735 39.3646 61.8855 40.0206 61.8855ZM72.2663 56.7255H64.6823V64.0215H61.9703V47.2695H64.6823V54.3255H72.2663V47.2695H74.9783V64.0215H72.2663V56.7255ZM85.5831 64.3095C84.4951 64.3095 83.5031 64.1255 82.6071 63.7575C81.7271 63.3735 80.9671 62.8215 80.3271 62.1015C79.7031 61.3655 79.2151 60.4615 78.8631 59.3895C78.5271 58.3015 78.3591 57.0535 78.3591 55.6455C78.3591 54.2375 78.5271 52.9975 78.8631 51.9255C79.2151 50.8375 79.7031 49.9335 80.3271 49.2135C80.9671 48.4775 81.7271 47.9255 82.6071 47.5575C83.5031 47.1735 84.4951 46.9815 85.5831 46.9815C86.6711 46.9815 87.6551 47.1735 88.5351 47.5575C89.4311 47.9255 90.1911 48.4775 90.8151 49.2135C91.4551 49.9335 91.9431 50.8375 92.2791 51.9255C92.6311 52.9975 92.8071 54.2375 92.8071 55.6455C92.8071 57.0535 92.6311 58.3015 92.2791 59.3895C91.9431 60.4615 91.4551 61.3655 90.8151 62.1015C90.1911 62.8215 89.4311 63.3735 88.5351 63.7575C87.6551 64.1255 86.6711 64.3095 85.5831 64.3095ZM85.5831 61.8855C86.2231 61.8855 86.8071 61.7735 87.3351 61.5495C87.8791 61.3255 88.3351 61.0055 88.7031 60.5895C89.0871 60.1575 89.3831 59.6375 89.5911 59.0295C89.7991 58.4215 89.9031 57.7335 89.9031 56.9655V54.3255C89.9031 53.5575 89.7991 52.8695 89.5911 52.2615C89.3831 51.6535 89.0871 51.1415 88.7031 50.7255C88.3351 50.2935 87.8791 49.9655 87.3351 49.7415C86.8071 49.5175 86.2231 49.4055 85.5831 49.4055C84.9271 49.4055 84.3351 49.5175 83.8071 49.7415C83.2791 49.9655 82.8231 50.2935 82.4391 50.7255C82.0711 51.1415 81.7831 51.6535 81.5751 52.2615C81.3671 52.8695 81.2631 53.5575 81.2631 54.3255V56.9655C81.2631 57.7335 81.3671 58.4215 81.5751 59.0295C81.7831 59.6375 82.0711 60.1575 82.4391 60.5895C82.8231 61.0055 83.2791 61.3255 83.8071 61.5495C84.3351 61.7735 84.9271 61.8855 85.5831 61.8855ZM98.757 47.2695V57.5895C98.757 59.0135 99.029 60.0855 99.573 60.8055C100.117 61.5255 101.045 61.8855 102.357 61.8855C103.669 61.8855 104.597 61.5255 105.141 60.8055C105.685 60.0855 105.957 59.0135 105.957 57.5895V47.2695H108.621V57.1575C108.621 58.3895 108.509 59.4535 108.285 60.3495C108.061 61.2455 107.701 61.9895 107.205 62.5815C106.709 63.1575 106.061 63.5895 105.261 63.8775C104.477 64.1655 103.509 64.3095 102.357 64.3095C101.205 64.3095 100.229 64.1655 99.429 63.8775C98.645 63.5895 98.005 63.1575 97.509 62.5815C97.013 61.9895 96.653 61.2455 96.429 60.3495C96.205 59.4535 96.093 58.3895 96.093 57.1575V47.2695H98.757ZM117.658 64.3095C116.25 64.3095 115.05 64.0535 114.058 63.5415C113.082 63.0295 112.242 62.3415 111.538 61.4775L113.41 59.7255C114.002 60.4455 114.65 60.9895 115.354 61.3575C116.074 61.7255 116.89 61.9095 117.802 61.9095C118.874 61.9095 119.682 61.6695 120.226 61.1895C120.77 60.7095 121.042 60.0615 121.042 59.2455C121.042 58.5895 120.85 58.0695 120.466 57.6855C120.082 57.3015 119.402 57.0135 118.426 56.8215L116.938 56.5575C115.306 56.2535 114.082 55.7175 113.266 54.9495C112.45 54.1815 112.042 53.1255 112.042 51.7815C112.042 51.0455 112.178 50.3815 112.45 49.7895C112.738 49.1815 113.13 48.6775 113.626 48.2775C114.138 47.8615 114.754 47.5415 115.474 47.3175C116.194 47.0935 117.002 46.9815 117.898 46.9815C119.162 46.9815 120.258 47.2055 121.186 47.6535C122.114 48.0855 122.906 48.7175 123.562 49.5495L121.666 51.2295C121.234 50.6695 120.706 50.2215 120.082 49.8855C119.458 49.5495 118.682 49.3815 117.754 49.3815C116.794 49.3815 116.05 49.5735 115.522 49.9575C114.994 50.3415 114.73 50.9015 114.73 51.6375C114.73 52.3415 114.946 52.8695 115.378 53.2215C115.81 53.5575 116.482 53.8135 117.394 53.9895L118.882 54.3015C120.562 54.6215 121.786 55.1655 122.554 55.9335C123.338 56.7015 123.73 57.7575 123.73 59.1015C123.73 59.8855 123.594 60.5975 123.322 61.2375C123.05 61.8775 122.65 62.4295 122.122 62.8935C121.61 63.3415 120.978 63.6935 120.226 63.9495C119.474 64.1895 118.618 64.3095 117.658 64.3095ZM126.986 64.0215V47.2695H137.714V49.6695H129.698V54.3255H136.97V56.7255H129.698V61.6215H137.714V64.0215H126.986Z" fill="#4F5560"/>
</svg>
